# 3ds Max Wavefront OBJ Exporter v0.97b - (c)2007 guruware
# File Created: 18.07.2010 15:16:17

mtllib JoyBuzzer.mtl

#
# object JoyBuzzer_smesh
#

v  0.164016 0.053328 0.094695
v  0.189389 0.053328 -0.000000
v  0.174792 0.053328 -0.000000
v  0.164016 0.053328 -0.094695
v  0.054672 0.053328 0.094695
v  0.094695 0.053328 0.164016
v  -0.000000 0.053328 0.189389
v  -0.000000 0.053328 0.094695
v  -0.094695 0.053328 0.164016
v  -0.054672 0.053328 0.094695
v  -0.164016 0.053328 0.094695
v  -0.164016 0.053328 -0.094695
v  -0.189389 0.053328 -0.000000
v  -0.174792 0.053328 -0.000000
v  0.094695 0.053328 -0.164016
v  0.054672 0.053328 -0.094695
v  0.000000 0.053328 -0.094695
v  0.000000 0.053328 -0.189389
v  -0.054672 0.053328 -0.094695
v  -0.094695 0.053328 -0.164016
v  0.174792 0.093328 -0.000000
v  0.164016 0.093328 -0.094695
v  0.154681 0.097996 -0.089305
v  0.164843 0.097996 -0.000000
v  0.164016 0.093328 0.094695
v  0.154681 0.097996 0.089305
v  0.054672 0.093328 0.094695
v  0.051560 0.097996 0.089305
v  -0.000000 0.093328 0.094695
v  -0.000000 0.097996 0.089305
v  -0.054672 0.093328 0.094695
v  -0.051560 0.097996 0.089305
v  -0.164016 0.093328 0.094695
v  -0.154681 0.097996 0.089305
v  -0.174792 0.093328 -0.000000
v  -0.164843 0.097996 -0.000000
v  -0.164016 0.093328 -0.094695
v  -0.154681 0.097996 -0.089305
v  -0.054672 0.093328 -0.094695
v  -0.051560 0.097996 -0.089305
v  0.000000 0.093328 -0.094695
v  0.000000 0.097996 -0.089305
v  0.054672 0.093328 -0.094695
v  0.051560 0.097996 -0.089305
v  -0.016043 0.163143 -0.017927
v  -0.014982 0.166441 -0.016088
v  -0.005693 0.166441 -0.018577
v  -0.005693 0.163143 -0.020700
v  -0.016043 0.095169 -0.017927
v  -0.005693 0.095169 -0.020700
v  0.004656 0.163143 -0.017927
v  0.004656 0.095169 -0.017927
v  0.012233 0.163143 -0.010350
v  0.012233 0.095169 -0.010350
v  0.015006 0.163143 -0.000000
v  0.015006 0.095169 -0.000000
v  0.003595 0.166441 -0.016088
v  0.010395 0.166441 -0.009289
v  0.012884 0.166441 -0.000000
v  0.010395 0.166441 0.009289
v  0.012233 0.163143 0.010350
v  0.003595 0.166441 0.016088
v  0.004656 0.163143 0.017927
v  0.012233 0.095169 0.010350
v  0.004656 0.095169 0.017927
v  -0.005693 0.163143 0.020700
v  -0.005693 0.095169 0.020700
v  -0.016043 0.163143 0.017927
v  -0.016043 0.095169 0.017927
v  -0.023620 0.163143 0.010350
v  -0.023620 0.095169 0.010350
v  -0.005693 0.166441 0.018577
v  -0.014982 0.166441 0.016088
v  -0.021782 0.166441 0.009289
v  -0.024271 0.166441 -0.000000
v  -0.026393 0.163143 -0.000000
v  -0.021782 0.166441 -0.009289
v  -0.023620 0.163143 -0.010350
v  -0.026393 0.095169 -0.000000
v  -0.023620 0.095169 -0.010350
v  0.094695 0.000000 -0.164016
v  -0.164016 0.000000 0.094695
v  0.000000 0.000000 -0.189389
v  -0.189389 0.000000 -0.000000
v  -0.094695 0.000000 -0.164016
v  -0.164016 0.000000 -0.094695
v  0.189389 0.000000 -0.000000
v  0.193964 0.004574 -0.000000
v  0.167977 0.004574 0.096982
v  0.164016 0.000000 -0.094695
v  0.167978 0.004574 -0.096982
v  0.096982 0.004574 -0.167978
v  0.000000 0.004574 -0.193964
v  -0.096982 0.004574 -0.167978
v  0.094695 0.000000 0.164016
v  0.096982 0.004574 0.167978
v  -0.000000 0.004574 0.193964
v  0.164016 0.000000 0.094695
v  -0.000000 0.000000 0.189389
v  -0.094695 0.000000 0.164016
v  -0.167978 0.004574 -0.096982
v  -0.193964 0.004574 -0.000000
v  -0.167978 0.004574 0.096982
v  -0.096982 0.004574 0.167977
v  -0.000000 0.048753 0.193964
v  -0.096982 0.048753 0.167977
v  -0.167978 0.048753 0.096982
v  -0.193964 0.048753 -0.000000
v  -0.167978 0.048753 -0.096982
v  -0.096982 0.048753 -0.167978
v  0.000000 0.048753 -0.193964
v  0.096982 0.048753 -0.167978
v  0.167978 0.048753 -0.096982
v  0.193964 0.048753 -0.000000
v  0.167977 0.048753 0.096982
v  0.096982 0.048753 0.167978
v  -0.005693 0.166441 -0.000000
# 117 vertices

vn 0.000000 1.000000 -0.000000
vn 0.854464 0.519510 0.000000
vn 0.881679 0.461060 -0.100330
vn 0.200741 0.885437 -0.419171
vn 0.424775 0.905299 0.000000
vn 1.000000 0.000000 0.000000
vn 0.993588 0.000000 -0.113065
vn 0.993588 0.000000 0.113065
vn 0.881678 0.461062 0.100331
vn 0.200740 0.885436 0.419175
vn -0.000000 0.000000 1.000000
vn -0.000000 0.415524 0.909582
vn -0.000000 0.239604 0.970871
vn -0.000000 0.755907 0.654679
vn -0.000000 0.239606 0.970870
vn -0.200741 0.885437 0.419171
vn -0.000001 0.000000 1.000000
vn -0.993588 0.000000 -0.113065
vn -1.000000 0.000000 -0.000000
vn -0.854464 0.519510 -0.000000
vn -0.881679 0.461060 0.100331
vn -0.424775 0.905299 -0.000000
vn -0.881679 0.461060 -0.100331
vn -0.200741 0.885437 -0.419171
vn -0.993588 0.000000 0.113065
vn 0.000000 0.000000 -1.000000
vn 0.000000 0.239606 -0.970870
vn 0.000000 0.415524 -0.909582
vn 0.000000 0.755907 -0.654679
vn 0.000000 0.439927 -0.898033
vn -0.249802 0.261645 -0.932277
vn -0.219809 0.527954 -0.820335
vn 0.000002 0.541183 -0.840905
vn 0.000001 0.270209 -0.962802
vn -0.258817 0.000000 -0.965926
vn 0.481400 0.270212 -0.833810
vn 0.500000 0.000000 -0.866025
vn 0.833811 0.270210 -0.481400
vn 0.866026 0.000000 -0.500000
vn 0.962801 0.270211 -0.000001
vn 1.000000 0.000000 -0.000000
vn 0.420450 0.541190 -0.728241
vn 0.728245 0.541185 -0.420450
vn 0.840901 0.541189 -0.000002
vn 0.728244 0.541182 0.420455
vn 0.833811 0.270208 0.481401
vn 0.420452 0.541190 0.728240
vn 0.481401 0.270212 0.833809
vn 0.866026 0.000000 0.499999
vn 0.500000 0.000000 0.866025
vn -0.000001 0.270208 0.962802
vn -0.481401 0.270210 0.833810
vn -0.500000 0.000000 0.866025
vn -0.833811 0.270209 0.481400
vn -0.866026 0.000000 0.499999
vn -0.000001 0.541183 0.840905
vn -0.420452 0.541185 0.728244
vn -0.728245 0.541185 0.420451
vn -0.840905 0.541182 -0.000002
vn -0.962802 0.270209 -0.000001
vn -0.728242 0.541190 -0.420449
vn -0.833811 0.270212 -0.481399
vn -0.600528 0.527951 -0.600528
vn -0.682475 0.261642 -0.682475
vn -1.000000 0.000000 0.000000
vn -0.866026 0.000000 -0.499999
vn -0.707107 0.000000 -0.707107
vn 0.217183 -0.900736 -0.376172
vn -0.376171 -0.900737 0.217182
vn -0.000000 -0.900736 -0.434367
vn -0.434367 -0.900736 0.000000
vn -0.217183 -0.900736 -0.376172
vn -0.376172 -0.900736 -0.217183
vn 0.434367 -0.900736 -0.000000
vn 0.707107 -0.707106 -0.000000
vn 0.612370 -0.707110 0.353553
vn 0.376172 -0.900736 -0.217183
vn 0.612372 -0.707108 -0.353553
vn 0.353553 -0.707108 -0.612372
vn -0.000000 -0.707106 -0.707107
vn -0.353553 -0.707108 -0.612372
vn 0.217182 -0.900737 0.376170
vn 0.353551 -0.707111 0.612369
vn -0.000000 -0.707106 0.707107
vn 0.376171 -0.900737 0.217182
vn -0.000000 -0.900736 0.434367
vn -0.217183 -0.900736 0.376172
vn -0.612372 -0.707108 -0.353553
vn -0.707107 -0.707106 0.000000
vn -0.612370 -0.707110 0.353551
vn -0.353553 -0.707108 0.612372
vn -0.000000 0.707103 0.707110
vn -0.000001 0.707104 0.707110
vn -0.353555 0.707105 0.612374
vn -0.353554 0.707105 0.612374
vn -0.612372 0.707107 0.353554
vn -0.612372 0.707107 0.353553
vn -0.707110 0.707104 -0.000000
vn -0.707110 0.707103 -0.000000
vn -0.612374 0.707105 -0.353555
vn -0.612374 0.707105 -0.353554
vn -0.353555 0.707105 -0.612374
vn -0.353554 0.707105 -0.612374
vn 0.000000 0.707103 -0.707110
vn 0.353554 0.707105 -0.612374
vn 0.612374 0.707105 -0.353555
vn 0.612374 0.707105 -0.353554
vn 0.707110 0.707104 0.000000
vn 0.707110 0.707103 0.000000
vn 0.612373 0.707107 0.353553
vn 0.612372 0.707107 0.353554
vn 0.353553 0.707108 0.612372
vn 0.353552 0.707108 0.612372
vn -0.500000 0.000000 -0.866025
vn 0.500000 0.000000 -0.866026
vn 0.866025 0.000000 -0.500000
vn 0.965926 0.000000 0.258819
vn 0.707106 0.000000 0.707107
vn 0.499999 0.000000 0.866026
vn -0.866026 0.000000 0.500000
vn -0.965926 0.000000 -0.258819
# 121 vertex normals

vt 0.785645 0.424805 0.000000
vt 0.836914 0.614746 0.000000
vt 0.785645 0.614746 0.000000
vt 0.785645 0.804688 0.000000
vt 0.565430 0.424805 0.000000
vt 0.645996 0.285645 0.000000
vt 0.455078 0.234863 0.000000
vt 0.455078 0.424805 0.000000
vt 0.264160 0.285645 0.000000
vt 0.344971 0.424805 0.000000
vt 0.124390 0.424805 0.000000
vt 0.124390 0.804688 0.000000
vt 0.073242 0.614746 0.000000
vt 0.124390 0.614746 0.000000
vt 0.645996 0.943787 0.000000
vt 0.565430 0.804688 0.000000
vt 0.455078 0.804688 0.000000
vt 0.455078 0.994675 0.000000
vt 0.344971 0.804688 0.000000
vt 0.264160 0.943787 0.000000
vt 0.213623 0.607422 0.000000
vt 0.225342 0.493164 0.000000
vt 0.241821 0.492188 0.000000
vt 0.229858 0.608154 0.000000
vt 0.163208 0.607910 0.000000
vt 0.175659 0.493164 0.000000
vt 0.175171 0.724365 0.000000
vt 0.225220 0.724365 0.000000
vt 0.241333 0.726563 0.000000
vt 0.442871 0.794434 0.000000
vt 0.371094 0.794434 0.000000
vt 0.371094 0.737549 0.000000
vt 0.227417 0.737549 0.000000
vt 0.376709 0.724365 0.000000
vt 0.442871 0.737549 0.000000
vt 0.444092 0.724365 0.000000
vt 0.514648 0.737549 0.000000
vt 0.511230 0.724365 0.000000
vt 0.658203 0.737549 0.000000
vt 0.645996 0.724365 0.000000
vt 0.227417 0.794434 0.000000
vt 0.514648 0.794434 0.000000
vt 0.658203 0.794434 0.000000
vt 0.711914 0.485840 0.000000
vt 0.726074 0.605957 0.000000
vt 0.675293 0.606689 0.000000
vt 0.665527 0.726807 0.000000
vt 0.658203 0.608154 0.000000
vt 0.661133 0.486816 0.000000
vt 0.645996 0.492188 0.000000
vt 0.716309 0.726074 0.000000
vt 0.514160 0.429688 0.000000
vt 0.654785 0.428711 0.000000
vt 0.654785 0.478516 0.000000
vt 0.514160 0.479492 0.000000
vt 0.511230 0.492188 0.000000
vt 0.438721 0.480469 0.000000
vt 0.444092 0.492188 0.000000
vt 0.372803 0.480957 0.000000
vt 0.376709 0.492188 0.000000
vt 0.236572 0.481934 0.000000
vt 0.438965 0.430664 0.000000
vt 0.372314 0.431152 0.000000
vt 0.236084 0.432617 0.000000
vt 0.816406 0.421387 0.000000
vt 0.807617 0.421387 0.000000
vt 0.807617 0.386719 0.000000
vt 0.816406 0.386719 0.000000
vt 0.996582 0.421387 0.000000
vt 0.996582 0.386719 0.000000
vt 0.816406 0.352051 0.000000
vt 0.996582 0.352051 0.000000
vt 0.816406 0.317383 0.000000
vt 0.996582 0.316895 0.000000
vt 0.816406 0.282227 0.000000
vt 0.996582 0.282227 0.000000
vt 0.807617 0.352051 0.000000
vt 0.807617 0.317383 0.000000
vt 0.807617 0.282227 0.000000
vt 0.807129 0.247559 0.000000
vt 0.815918 0.247559 0.000000
vt 0.807129 0.212891 0.000000
vt 0.815918 0.212891 0.000000
vt 0.996582 0.247559 0.000000
vt 0.996582 0.212891 0.000000
vt 0.815918 0.178223 0.000000
vt 0.996582 0.177734 0.000000
vt 0.815918 0.143555 0.000000
vt 0.996582 0.143066 0.000000
vt 0.815918 0.108398 0.000000
vt 0.996582 0.108398 0.000000
vt 0.807129 0.178223 0.000000
vt 0.807129 0.143555 0.000000
vt 0.807129 0.108398 0.000000
vt 0.807129 0.073730 0.000000
vt 0.815918 0.073730 0.000000
vt 0.807129 0.039063 0.000000
vt 0.815918 0.039063 0.000000
vt 0.807129 0.004395 0.000000
vt 0.815918 0.004395 0.000000
vt 0.996582 0.073730 0.000000
vt 0.996582 0.039063 0.000000
vt 0.996582 0.003906 0.000000
vt 0.086121 0.997049 0.000000
vt 0.033051 0.851196 0.000000
vt 0.045166 0.989830 0.000000
vt 0.006332 0.883118 0.000000
vt 0.013329 0.963104 0.000000
vt -0.000886 0.924072 0.000000
vt 0.151855 0.950989 0.000000
vt 0.153687 0.951813 0.000000
vt 0.161011 0.909851 0.000000
vt 0.125122 0.982834 0.000000
vt 0.126343 0.984421 0.000000
vt 0.086304 0.998981 0.000000
vt 0.044373 0.991585 0.000000
vt 0.011742 0.964233 0.000000
vt 0.144897 0.870972 0.000000
vt 0.146484 0.869873 0.000000
vt 0.113892 0.842529 0.000000
vt 0.159180 0.910034 0.000000
vt 0.113037 0.844238 0.000000
vt 0.072144 0.837036 0.000000
vt -0.002819 0.924194 0.000000
vt 0.004574 0.882263 0.000000
vt 0.031952 0.849609 0.000000
vt 0.071960 0.835083 0.000000
vt 0.455078 0.225586 0.000000
vt 0.259521 0.277832 0.000000
vt 0.116394 0.420410 0.000000
vt 0.064026 0.614746 0.000000
vt 0.116394 0.809326 0.000000
vt 0.259521 0.951721 0.000000
vt 0.455078 1.003851 0.000000
vt 0.650391 0.951721 0.000000
vt 0.793945 0.809326 0.000000
vt 0.846191 0.614746 0.000000
vt 0.793945 0.420410 0.000000
vt 0.650391 0.277832 0.000000
vt 0.804688 0.005371 0.000000
vt 0.804688 0.113281 0.000000
vt 0.670898 0.113281 0.000000
vt 0.670898 0.005371 0.000000
vt 0.536621 0.113281 0.000000
vt 0.536621 0.005371 0.000000
vt 0.403076 0.113281 0.000000
vt 0.403076 0.005371 0.000000
vt 0.269287 0.113281 0.000000
vt 0.269287 0.005371 0.000000
vt 0.135376 0.113281 0.000000
vt 0.135376 0.005371 0.000000
vt 0.002043 0.113281 0.000000
vt 0.002043 0.006348 0.000000
vt 0.806152 0.112793 0.000000
vt 0.806152 0.220703 0.000000
vt 0.671875 0.220703 0.000000
vt 0.671875 0.112793 0.000000
vt 0.538086 0.220703 0.000000
vt 0.538086 0.112793 0.000000
vt 0.404541 0.220703 0.000000
vt 0.404541 0.112793 0.000000
vt 0.270752 0.220703 0.000000
vt 0.270752 0.112793 0.000000
vt 0.136841 0.220703 0.000000
vt 0.136841 0.112793 0.000000
vt 0.003021 0.220703 0.000000
vt 0.003021 0.112793 0.000000
vt 0.897949 0.897461 0.000000
vt 0.854004 0.821289 0.000000
vt 0.897949 0.809570 0.000000
vt 0.941895 0.821289 0.000000
vt 0.974121 0.853516 0.000000
vt 0.985840 0.897461 0.000000
vt 0.974121 0.941376 0.000000
vt 0.941895 0.973526 0.000000
vt 0.897949 0.985306 0.000000
vt 0.854004 0.973526 0.000000
vt 0.821777 0.941376 0.000000
vt 0.810059 0.897461 0.000000
vt 0.821777 0.853516 0.000000
# 180 texture coords

g JoyBuzzer_smesh
usemtl Joybuzzer_mic
s 1
f -117/-180/-121 -116/-179/-121 -115/-178/-121 
s 2
f -115/-178/-121 -116/-179/-121 -114/-177/-121 
s 3
f -113/-176/-121 -112/-175/-121 -117/-180/-121 
s 4
f -111/-174/-121 -112/-175/-121 -113/-176/-121 
s 5
f -113/-176/-121 -110/-173/-121 -111/-174/-121 
s 6
f -109/-172/-121 -111/-174/-121 -110/-173/-121 
s 7
f -110/-173/-121 -108/-171/-121 -109/-172/-121 
s 8
f -107/-170/-121 -109/-172/-121 -108/-171/-121 
s 9
f -106/-169/-121 -105/-168/-121 -104/-167/-121 
s 10
f -104/-167/-121 -105/-168/-121 -107/-170/-121 
s 11
f -114/-177/-121 -103/-166/-121 -102/-165/-121 
s 12
f -101/-164/-121 -102/-165/-121 -103/-166/-121 
s 13
f -103/-166/-121 -100/-163/-121 -101/-164/-121 
s 14
f -99/-162/-121 -101/-164/-121 -100/-163/-121 
s 15
f -100/-163/-121 -98/-161/-121 -99/-162/-121 
s 16
f -99/-162/-121 -98/-161/-121 -106/-169/-121 
s 17
f -97/-160/-120 -96/-159/-119 -95/-158/-118 
s 18
f -95/-158/-118 -94/-157/-117 -97/-160/-120 
s 19
f -115/-156/-116 -114/-155/-115 -96/-159/-119 
s 20
f -96/-159/-119 -97/-160/-120 -115/-156/-116 
s 21
f -117/-154/-114 -115/-156/-116 -97/-160/-120 
s 22
f -97/-160/-120 -93/-153/-113 -117/-154/-114 
s 23
f -93/-153/-113 -97/-160/-120 -94/-157/-117 
s 24
f -94/-157/-117 -92/-152/-112 -93/-153/-113 
s 25
f -110/-151/-111 -113/-150/-111 -91/-149/-110 
s 26
f -93/-148/-109 -91/-149/-110 -113/-150/-111 
s 27
f -91/-149/-110 -93/-148/-109 -92/-152/-112 
s 28
f -92/-152/-112 -90/-147/-108 -91/-149/-110 
s 29
f -89/-146/-110 -91/-149/-110 -90/-147/-108 
s 30
f -90/-147/-108 -88/-145/-108 -89/-146/-110 
s 31
f -87/-144/-110 -89/-146/-110 -88/-145/-108 
s 32
f -88/-145/-108 -86/-143/-108 -87/-144/-110 
s 33
f -85/-142/-107 -87/-144/-110 -86/-143/-108 
s 34
f -86/-143/-108 -84/-141/-106 -85/-142/-107 
s 35
f -113/-150/-111 -117/-140/-111 -93/-148/-109 
s 36
f -91/-149/-110 -89/-146/-110 -110/-151/-111 
s 37
f -108/-139/-105 -110/-151/-111 -89/-146/-110 
s 38
f -89/-146/-110 -87/-144/-110 -108/-139/-105 
s 39
f -107/-138/-111 -108/-139/-105 -87/-144/-110 
s 40
f -87/-144/-110 -85/-142/-107 -107/-138/-111 
s 41
f -106/-137/-104 -104/-136/-103 -83/-135/-102 
s 42
f -85/-134/-101 -83/-135/-102 -104/-136/-103 
s 43
f -83/-135/-102 -85/-134/-101 -84/-141/-106 
s 44
f -84/-141/-106 -82/-133/-100 -83/-135/-102 
s 45
f -81/-132/-99 -83/-135/-102 -82/-133/-100 
s 46
f -82/-133/-100 -80/-131/-98 -81/-132/-99 
s 47
f -83/-135/-102 -81/-132/-99 -106/-137/-104 
s 48
f -104/-136/-103 -107/-130/-97 -85/-134/-101 
s 49
f -99/-129/-96 -106/-128/-96 -81/-127/-95 
s 50
f -81/-127/-95 -79/-126/-94 -99/-129/-96 
s 51
f -79/-126/-94 -81/-127/-95 -80/-131/-98 
s 52
f -80/-131/-98 -78/-125/-93 -79/-126/-94 
s 53
f -77/-124/-94 -79/-126/-94 -78/-125/-93 
s 54
f -78/-125/-93 -76/-123/-93 -77/-124/-94 
s 55
f -75/-122/-92 -77/-124/-94 -76/-123/-93 
s 56
f -76/-123/-93 -74/-121/-93 -75/-122/-92 
s 57
f -96/-120/-93 -75/-122/-92 -74/-121/-93 
s 58
f -74/-121/-93 -95/-158/-118 -96/-120/-93 
s 59
f -101/-119/-96 -99/-129/-96 -79/-126/-94 
s 60
f -79/-126/-94 -77/-124/-94 -101/-119/-96 
s 61
f -102/-118/-96 -101/-119/-96 -77/-124/-94 
s 62
f -77/-124/-94 -75/-122/-92 -102/-118/-96 
s 63
f -114/-117/-96 -102/-118/-96 -75/-122/-92 
s 64
f -75/-122/-96 -96/-120/-96 -114/-117/-96 
s 65
f -73/-116/-91 -72/-115/-90 -71/-114/-89 
s 66
f -71/-114/-89 -70/-113/-88 -73/-116/-91 
s 67
f -69/-112/-87 -73/-116/-91 -70/-113/-88 
s 68
f -70/-113/-88 -68/-111/-96 -69/-112/-87 
s 69
f -68/-111/-96 -70/-113/-88 -67/-110/-86 
s 70
f -67/-110/-86 -66/-109/-85 -68/-111/-96 
s 71
f -66/-109/-85 -67/-110/-86 -65/-108/-84 
s 72
f -65/-108/-84 -64/-107/-83 -66/-109/-85 
s 73
f -64/-107/-83 -65/-108/-84 -63/-106/-82 
s 74
f -63/-106/-82 -62/-105/-81 -64/-107/-83 
s 75
f -70/-113/-88 -71/-114/-89 -61/-104/-80 
s 76
f -61/-104/-80 -67/-110/-86 -70/-113/-88 
s 77
f -67/-110/-86 -61/-104/-80 -60/-103/-79 
s 78
f -60/-103/-79 -65/-108/-84 -67/-110/-86 
s 79
f -65/-108/-84 -60/-103/-79 -59/-102/-78 
s 80
f -59/-102/-78 -63/-106/-82 -65/-108/-84 
s 81
f -63/-106/-82 -59/-102/-78 -58/-101/-77 
s 82
f -58/-101/-77 -57/-100/-76 -63/-106/-82 
s 83
f -57/-100/-76 -58/-101/-77 -56/-99/-75 
s 84
f -56/-99/-75 -55/-98/-74 -57/-100/-76 
s 85
f -62/-105/-81 -63/-106/-82 -57/-100/-76 
s 86
f -57/-100/-76 -54/-97/-73 -62/-105/-81 
s 87
f -54/-97/-73 -57/-100/-76 -55/-98/-74 
s 88
f -55/-98/-74 -53/-96/-72 -54/-97/-73 
s 89
f -53/-96/-72 -55/-98/-74 -52/-95/-71 
s 90
f -52/-95/-71 -51/-94/-105 -53/-96/-72 
s 91
f -51/-94/-105 -52/-95/-71 -50/-93/-70 
s 92
f -50/-93/-70 -49/-92/-69 -51/-94/-105 
s 93
f -49/-92/-69 -50/-93/-70 -48/-91/-68 
s 94
f -48/-91/-68 -47/-90/-67 -49/-92/-69 
s 95
f -55/-98/-74 -56/-99/-75 -46/-89/-66 
s 96
f -46/-89/-66 -52/-95/-71 -55/-98/-74 
s 97
f -52/-95/-71 -46/-89/-66 -45/-88/-65 
s 98
f -45/-88/-65 -50/-93/-70 -52/-95/-71 
s 99
f -50/-93/-70 -45/-88/-65 -44/-87/-64 
s 100
f -44/-87/-64 -48/-91/-68 -50/-93/-70 
s 101
f -48/-91/-68 -44/-87/-64 -43/-86/-63 
s 102
f -43/-86/-63 -42/-85/-62 -48/-91/-68 
s 103
f -42/-85/-62 -43/-86/-63 -41/-84/-61 
s 104
f -41/-84/-61 -40/-83/-60 -42/-85/-62 
s 105
f -40/-83/-60 -41/-84/-61 -72/-82/-59 
s 106
f -72/-82/-59 -73/-81/-58 -40/-83/-60 
s 107
f -47/-90/-67 -48/-91/-68 -42/-85/-62 
s 108
f -42/-85/-62 -39/-80/-57 -47/-90/-67 
s 109
f -39/-80/-57 -42/-85/-62 -40/-83/-60 
s 110
f -40/-83/-60 -38/-79/-56 -39/-80/-57 
s 111
f -38/-79/-56 -40/-83/-60 -73/-81/-58 
s 112
f -73/-81/-58 -69/-78/-55 -38/-79/-56 
s 113
f -80/-131/-121 -82/-133/-121 -84/-141/-121 
s 114
f -84/-141/-121 -86/-143/-121 -80/-131/-121 
s 115
f -80/-131/-121 -86/-143/-121 -78/-125/-121 
s 116
f -86/-143/-121 -88/-145/-121 -78/-125/-121 
s 117
f -78/-125/-121 -88/-145/-121 -76/-123/-121 
s 118
f -88/-145/-121 -90/-147/-121 -76/-123/-121 
s 119
f -76/-123/-121 -90/-147/-121 -74/-121/-121 
s 120
f -90/-147/-121 -92/-152/-121 -74/-121/-121 
s 121
f -74/-121/-121 -92/-152/-121 -95/-158/-121 
s 122
f -92/-152/-121 -94/-157/-121 -95/-158/-121 
s 123
f -37/-77/-54 -36/-76/-53 -35/-75/-52 
s 124
f -36/-76/-53 -34/-74/-51 -35/-75/-52 
s 125
f -35/-75/-52 -34/-74/-51 -33/-73/-50 
s 126
f -34/-74/-51 -32/-72/-49 -33/-73/-50 
s 127
f -31/-71/-48 -30/-70/-47 -29/-69/-46 
s 128
f -30/-70/-47 -31/-71/-48 -28/-68/-45 
s 129
f -28/-68/-45 -27/-67/-44 -30/-70/-47 
s 130
f -27/-67/-44 -28/-68/-45 -37/-77/-54 
s 131
f -37/-77/-54 -26/-66/-43 -27/-67/-44 
s 132
f -26/-66/-43 -37/-77/-54 -35/-75/-52 
s 133
f -35/-75/-52 -25/-65/-42 -26/-66/-43 
s 134
f -25/-65/-42 -35/-75/-52 -33/-73/-50 
s 135
f -33/-73/-50 -24/-64/-41 -25/-65/-42 
s 136
f -24/-64/-41 -33/-73/-50 -32/-72/-49 
s 137
f -23/-63/-40 -22/-62/-39 -21/-61/-38 
s 138
f -22/-62/-39 -23/-63/-40 -20/-60/-37 
s 139
f -20/-60/-37 -29/-69/-46 -22/-62/-39 
s 140
f -29/-69/-46 -20/-60/-37 -31/-71/-48 
s 141
f -31/-71/-48 -20/-60/-37 -23/-63/-40 
s 142
f -23/-63/-40 -19/-59/-36 -31/-71/-48 
s 143
f -31/-71/-48 -19/-59/-36 -28/-68/-45 
s 144
f -19/-59/-36 -18/-58/-35 -28/-68/-45 
s 145
f -28/-68/-45 -18/-58/-35 -37/-77/-54 
s 146
f -18/-58/-35 -36/-76/-53 -37/-77/-54 
s 147
f -32/-72/-49 -17/-57/-34 -24/-64/-41 
s 148
f -17/-57/-34 -32/-72/-49 -34/-74/-51 
s 149
f -34/-74/-51 -16/-56/-33 -17/-57/-34 
s 150
f -16/-56/-33 -34/-74/-51 -36/-76/-53 
s 151
f -36/-76/-53 -15/-55/-32 -16/-56/-33 
s 152
f -15/-55/-32 -36/-76/-53 -18/-58/-35 
s 153
f -18/-58/-35 -14/-54/-31 -15/-55/-32 
s 154
f -14/-54/-31 -18/-58/-35 -19/-59/-36 
s 155
f -19/-59/-36 -21/-61/-38 -14/-54/-31 
s 156
f -21/-61/-38 -19/-59/-36 -23/-63/-40 
s 157
f -13/-53/-30 -111/-174/-29 -109/-172/-28 
s 158
f -109/-172/-28 -12/-52/-27 -13/-53/-30 
s 159
f -12/-52/-27 -109/-172/-28 -107/-170/-26 
s 160
f -107/-170/-26 -11/-51/-25 -12/-52/-27 
s 161
f -11/-51/-25 -107/-170/-26 -105/-168/-24 
s 162
f -105/-168/-24 -10/-50/-23 -11/-51/-25 
s 163
f -10/-50/-23 -105/-168/-24 -106/-169/-22 
s 164
f -106/-169/-22 -9/-49/-21 -10/-50/-23 
s 165
f -9/-49/-21 -106/-169/-22 -98/-161/-20 
s 166
f -98/-161/-20 -8/-48/-19 -9/-49/-21 
s 167
f -8/-48/-19 -98/-161/-20 -100/-163/-18 
s 168
f -100/-163/-18 -7/-47/-18 -8/-48/-19 
s 169
f -7/-47/-18 -100/-163/-18 -103/-166/-17 
s 170
f -103/-166/-17 -6/-46/-17 -7/-47/-18 
s 171
f -6/-46/-17 -103/-166/-17 -114/-177/-16 
s 172
f -114/-177/-16 -5/-45/-15 -6/-46/-17 
s 173
f -5/-45/-15 -114/-177/-16 -116/-179/-14 
s 174
f -116/-179/-14 -4/-44/-13 -5/-45/-15 
s 175
f -4/-44/-13 -116/-179/-14 -117/-180/-12 
s 176
f -117/-180/-12 -3/-43/-11 -4/-44/-13 
s 177
f -3/-43/-11 -117/-180/-12 -112/-175/-10 
s 178
f -112/-175/-10 -2/-42/-9 -3/-43/-11 
s 179
f -2/-42/-9 -112/-175/-10 -111/-174/-29 
s 180
f -111/-174/-29 -13/-53/-30 -2/-42/-9 
s 181
f -17/-41/-55 -9/-40/-55 -8/-39/-8 
s 182
f -8/-39/-8 -24/-38/-8 -17/-41/-55 
s 183
f -24/-38/-8 -8/-39/-8 -7/-37/-96 
s 184
f -7/-37/-96 -25/-36/-96 -24/-38/-8 
s 185
f -25/-36/-96 -7/-37/-96 -6/-35/-7 
s 186
f -6/-35/-7 -26/-34/-7 -25/-36/-96 
s 187
f -26/-34/-7 -6/-35/-7 -5/-33/-6 
s 188
f -5/-33/-6 -27/-32/-6 -26/-34/-7 
s 189
f -27/-32/-6 -5/-33/-6 -4/-31/-116 
s 190
f -4/-31/-116 -30/-30/-116 -27/-32/-6 
s 191
f -30/-30/-116 -4/-31/-116 -3/-29/-5 
s 192
f -3/-29/-5 -29/-28/-5 -30/-30/-116 
s 193
f -29/-27/-4 -3/-26/-4 -2/-25/-3 
s 194
f -2/-25/-3 -22/-24/-3 -29/-27/-4 
s 195
f -22/-24/-3 -2/-25/-3 -13/-23/-105 
s 196
f -13/-23/-105 -21/-22/-105 -22/-24/-3 
s 197
f -21/-22/-105 -13/-23/-105 -12/-21/-69 
s 198
f -12/-21/-69 -14/-20/-69 -21/-22/-105 
s 199
f -14/-20/-69 -12/-21/-69 -11/-19/-2 
s 200
f -11/-19/-2 -15/-18/-2 -14/-20/-69 
s 201
f -15/-18/-2 -11/-19/-2 -10/-17/-103 
s 202
f -10/-17/-103 -16/-16/-103 -15/-18/-2 
s 203
f -16/-16/-103 -10/-17/-103 -9/-15/-1 
s 204
f -9/-15/-1 -17/-14/-1 -16/-16/-103 
s 205
f -1/-13/-121 -41/-12/-121 -43/-11/-121 
s 206
f -1/-13/-121 -43/-11/-121 -44/-10/-121 
s 207
f -1/-13/-121 -44/-10/-121 -45/-9/-121 
s 208
f -1/-13/-121 -45/-9/-121 -46/-8/-121 
s 209
f -1/-13/-121 -46/-8/-121 -56/-7/-121 
s 210
f -1/-13/-121 -56/-7/-121 -58/-6/-121 
s 211
f -1/-13/-121 -58/-6/-121 -59/-5/-121 
s 212
f -1/-13/-121 -59/-5/-121 -60/-4/-121 
s 213
f -1/-13/-121 -60/-4/-121 -61/-3/-121 
s 214
f -1/-13/-121 -61/-3/-121 -71/-2/-121 
s 215
f -1/-13/-121 -71/-2/-121 -72/-1/-121 
s 216
f -1/-13/-121 -72/-1/-121 -41/-12/-121 
# 0 polygons - 216 triangles

