# 3ds Max Wavefront OBJ Exporter v0.97b - (c)2007 guruware
# File Created: 18.07.2010 15:16:59

mtllib playing card.mtl

#
# object Joker_PlayingCard_smesh
#

v  -1.998164 -0.033200 1.451984
v  -1.926924 -0.033200 1.466152
v  -1.926924 0.033200 1.466152
v  -1.998164 0.033200 1.451984
v  -2.058556 -0.033200 1.411628
v  -2.058556 0.033200 1.411628
v  -2.098908 -0.033200 1.351236
v  -2.098908 0.033200 1.351236
v  -2.113080 -0.033200 1.280000
v  -2.113080 0.033200 1.280000
v  -2.113080 0.033200 -1.280000
v  -2.113080 -0.033200 -1.280000
v  2.085056 -0.033200 1.351236
v  2.099228 -0.033200 1.280000
v  2.099228 0.033241 1.280000
v  2.085056 0.033241 1.351236
v  2.044704 -0.033200 1.411628
v  2.044704 0.033241 1.411628
v  1.984312 -0.033200 1.451984
v  1.984312 0.033241 1.451984
v  1.913076 -0.033200 1.466152
v  1.913076 0.033240 1.466152
v  1.984312 -0.033200 -1.451984
v  1.913076 -0.033200 -1.466152
v  1.913076 0.033241 -1.466152
v  1.984312 0.033241 -1.451984
v  2.044704 -0.033200 -1.411632
v  2.044704 0.033241 -1.411632
v  2.085056 -0.033200 -1.351240
v  2.085056 0.033241 -1.351240
v  2.099228 -0.033200 -1.280000
v  2.099228 0.033241 -1.280000
v  -2.098908 -0.033200 -1.351236
v  -2.098908 0.033200 -1.351236
v  -2.058556 -0.033200 -1.411628
v  -2.058556 0.033200 -1.411628
v  -1.998164 -0.033200 -1.451984
v  -1.998164 0.033200 -1.451984
v  -1.926924 -0.033200 -1.466152
v  -1.926924 0.033200 -1.466152
v  1.913076 -0.033200 -1.280000
v  -1.926924 -0.033200 -1.280000
v  1.913076 -0.033200 1.280000
v  -1.926924 -0.033200 1.280000
v  -1.926924 0.033200 -1.280000
v  1.913076 0.033241 -1.280000
v  1.913076 0.033241 1.280000
v  -1.926924 0.033200 1.280000
# 48 vertices

vn -0.382686 0.000000 0.923878
vn -0.195058 0.000000 0.980792
vn -0.098000 0.000000 0.995186
vn -0.325380 0.000000 0.945584
vn -0.707123 0.000000 0.707090
vn -0.555602 0.000000 0.831448
vn -0.707124 0.000000 0.707090
vn -0.923875 0.000000 0.382694
vn -0.898707 0.000000 0.438549
vn -0.995183 0.000000 0.098033
vn -0.980779 0.000000 0.195121
vn -1.000000 0.000000 -0.000000
vn 0.923875 0.000000 0.382695
vn 0.995183 0.000000 0.098033
vn 0.707123 0.000000 0.707091
vn 0.749116 0.000000 0.662439
vn 0.382691 0.000000 0.923876
vn 0.555602 0.000000 0.831448
vn 0.382692 0.000000 0.923876
vn 0.098006 0.000000 0.995186
vn 0.098007 0.000000 0.995186
vn 0.000000 0.000000 1.000000
vn 0.382670 0.000000 -0.923885
vn 0.195069 0.000000 -0.980790
vn 0.098007 0.000000 -0.995186
vn 0.707107 0.000000 -0.707107
vn 0.923877 0.000000 -0.382690
vn 0.995184 0.000000 -0.098028
vn -0.923875 0.000000 -0.382694
vn -0.980779 0.000000 -0.195121
vn -0.707123 0.000000 -0.707090
vn -0.382686 0.000000 -0.923878
vn -0.382686 0.000000 -0.923879
vn -0.098001 0.000000 -0.995186
vn -0.098000 0.000000 -0.995186
vn 0.000000 0.000000 -1.000000
vn 0.000000 -1.000000 -0.000000
vn -0.000005 1.000000 -0.000000
vn -0.000006 1.000000 -0.000000
vn 0.000000 1.000000 -0.000000
vn -0.000006 1.000000 0.000002
vn -0.000012 1.000000 0.000005
vn -0.000006 1.000000 0.000003
vn -0.000006 1.000000 0.000000
# 44 vertex normals

vt 0.973145 0.757690 0.000000
vt 0.973145 0.754028 0.000000
vt 1.000000 0.754028 0.000000
vt 1.000000 0.757690 0.000000
vt 0.973145 0.762329 0.000000
vt 1.000000 0.762329 0.000000
vt 0.973145 0.767334 0.000000
vt 1.000000 0.767334 0.000000
vt 0.973145 0.772217 0.000000
vt 1.000000 0.772217 0.000000
vt 1.000000 0.999724 0.000000
vt 0.973145 0.999724 0.000000
vt 0.973145 0.504639 0.000000
vt 0.973145 0.499512 0.000000
vt 1.000000 0.499512 0.000000
vt 1.000000 0.504639 0.000000
vt 0.973145 0.509521 0.000000
vt 1.000000 0.509521 0.000000
vt 0.973145 0.514160 0.000000
vt 1.000000 0.514160 0.000000
vt 0.973145 0.517822 0.000000
vt 1.000000 0.517822 0.000000
vt 0.973145 0.257813 0.000000
vt 0.973145 0.253906 0.000000
vt 1.000000 0.253906 0.000000
vt 1.000000 0.257813 0.000000
vt 0.973145 0.262207 0.000000
vt 1.000000 0.262207 0.000000
vt 0.973145 0.267578 0.000000
vt 1.000000 0.267578 0.000000
vt 0.973145 0.271973 0.000000
vt 1.000000 0.271973 0.000000
vt 0.973145 0.004395 0.000000
vt 0.973145 0.000000 0.000000
vt 1.000000 0.000000 0.000000
vt 1.000000 0.004395 0.000000
vt 0.973145 0.009766 0.000000
vt 1.000000 0.009766 0.000000
vt 0.973145 0.014160 0.000000
vt 1.000000 0.014160 0.000000
vt 0.973145 0.018066 0.000000
vt 1.000000 0.018066 0.000000
vt 0.923828 0.532959 0.000000
vt 0.051239 0.532959 0.000000
vt 0.923828 0.501709 0.000000
vt 0.051239 0.501709 0.000000
vt 0.035065 0.504150 0.000000
vt 0.021332 0.510986 0.000000
vt 0.012161 0.520996 0.000000
vt 0.008942 0.532959 0.000000
vt 0.923828 0.993118 0.000000
vt 0.923828 0.961945 0.000000
vt 0.940430 0.990746 0.000000
vt 0.954102 0.983978 0.000000
vt 0.962891 0.973862 0.000000
vt 0.966309 0.961945 0.000000
vt 0.966309 0.532959 0.000000
vt 0.962891 0.520996 0.000000
vt 0.954102 0.510986 0.000000
vt 0.940430 0.504150 0.000000
vt 0.051239 0.961945 0.000000
vt 0.008942 0.961945 0.000000
vt 0.012161 0.973862 0.000000
vt 0.021332 0.983978 0.000000
vt 0.035065 0.990746 0.000000
vt 0.051239 0.993118 0.000000
vt 0.051239 0.463379 0.000000
vt 0.923828 0.463379 0.000000
vt 0.923828 0.494629 0.000000
vt 0.051239 0.494629 0.000000
vt 0.035065 0.492188 0.000000
vt 0.021332 0.485352 0.000000
vt 0.012161 0.475098 0.000000
vt 0.008942 0.463379 0.000000
vt 0.923828 0.034668 0.000000
vt 0.923828 0.003418 0.000000
vt 0.940430 0.005859 0.000000
vt 0.954102 0.012207 0.000000
vt 0.962891 0.022461 0.000000
vt 0.966309 0.034668 0.000000
vt 0.966309 0.463379 0.000000
vt 0.962891 0.475098 0.000000
vt 0.954102 0.485352 0.000000
vt 0.940430 0.492188 0.000000
vt 0.051239 0.034668 0.000000
vt 0.008942 0.034668 0.000000
vt 0.012161 0.022461 0.000000
vt 0.021332 0.012207 0.000000
vt 0.035065 0.005859 0.000000
vt 0.051239 0.003418 0.000000
# 90 texture coords

g Joker_PlayingCard_smesh
usemtl Joker_PlayingCard_mic
s 1
f -48/-90/-44 -47/-89/-43 -46/-88/-42 
s 2
f -48/-90/-44 -46/-88/-42 -45/-87/-41 
s 3
f -44/-86/-40 -48/-90/-44 -45/-87/-41 
s 4
f -44/-86/-40 -45/-87/-39 -43/-85/-38 
s 5
f -42/-84/-37 -44/-86/-40 -43/-85/-38 
s 6
f -42/-84/-37 -43/-85/-38 -41/-83/-36 
s 7
f -40/-82/-35 -42/-84/-37 -41/-83/-36 
s 8
f -40/-82/-35 -41/-83/-34 -39/-81/-35 
s 9
f -40/-82/-35 -39/-81/-35 -38/-80/-33 
s 10
f -38/-80/-33 -37/-79/-33 -40/-82/-35 
s 11
f -36/-78/-32 -35/-77/-31 -34/-76/-31 
s 12
f -36/-78/-32 -34/-76/-31 -33/-75/-32 
s 13
f -32/-74/-30 -36/-78/-32 -33/-75/-32 
s 14
f -32/-74/-30 -33/-75/-32 -31/-73/-29 
s 15
f -30/-72/-28 -32/-74/-30 -31/-73/-29 
s 16
f -30/-72/-28 -31/-73/-27 -29/-71/-26 
s 17
f -28/-70/-25 -30/-72/-28 -29/-71/-26 
s 18
f -28/-70/-25 -29/-71/-26 -27/-69/-24 
s 19
f -28/-70/-25 -27/-69/-24 -46/-88/-42 
s 20
f -46/-88/-42 -47/-89/-23 -28/-70/-25 
s 21
f -26/-68/-22 -25/-67/-21 -24/-66/-20 
s 22
f -26/-68/-22 -24/-66/-20 -23/-65/-22 
s 23
f -22/-64/-19 -26/-68/-22 -23/-65/-22 
s 24
f -22/-64/-19 -23/-65/-22 -21/-63/-19 
s 25
f -20/-62/-18 -22/-64/-19 -21/-63/-19 
s 26
f -20/-62/-18 -21/-63/-19 -19/-61/-18 
s 27
f -18/-60/-17 -20/-62/-18 -19/-61/-18 
s 28
f -18/-60/-17 -19/-61/-18 -17/-59/-17 
s 29
f -18/-60/-17 -17/-59/-17 -34/-76/-31 
s 30
f -34/-76/-31 -35/-77/-31 -18/-60/-17 
s 31
f -16/-58/-16 -37/-57/-15 -38/-56/-15 
s 32
f -16/-58/-16 -38/-56/-15 -15/-55/-16 
s 33
f -14/-54/-14 -16/-58/-16 -15/-55/-16 
s 34
f -14/-54/-14 -15/-55/-16 -13/-53/-14 
s 35
f -12/-52/-13 -14/-54/-14 -13/-53/-14 
s 36
f -12/-52/-13 -13/-53/-14 -11/-51/-12 
s 37
f -10/-50/-11 -12/-52/-13 -11/-51/-12 
s 38
f -10/-50/-11 -11/-51/-12 -9/-49/-10 
s 39
f -10/-50/-11 -9/-49/-10 -24/-66/-20 
s 40
f -24/-66/-20 -25/-67/-9 -10/-50/-11 
s 41
f -8/-48/-8 -7/-47/-8 -25/-46/-8 
s 42
f -10/-45/-8 -25/-46/-8 -7/-47/-8 
s 43
f -10/-45/-8 -7/-47/-8 -12/-44/-8 
s 44
f -12/-44/-8 -7/-47/-8 -14/-43/-8 
s 45
f -14/-43/-8 -7/-47/-8 -16/-42/-8 
s 46
f -16/-42/-8 -7/-47/-8 -37/-41/-8 
s 47
f -28/-40/-8 -6/-39/-8 -30/-38/-8 
s 48
f -30/-38/-8 -6/-39/-8 -32/-37/-8 
s 49
f -32/-37/-8 -6/-39/-8 -36/-36/-8 
s 50
f -36/-36/-8 -6/-39/-8 -35/-35/-8 
s 51
f -6/-39/-8 -8/-48/-8 -35/-35/-8 
s 52
f -18/-34/-8 -35/-35/-8 -8/-48/-8 
s 53
f -18/-34/-8 -8/-48/-8 -20/-33/-8 
s 54
f -20/-33/-8 -8/-48/-8 -22/-32/-8 
s 55
f -22/-32/-8 -8/-48/-8 -26/-31/-8 
s 56
f -26/-31/-8 -8/-48/-8 -25/-46/-8 
s 57
f -8/-48/-8 -6/-39/-8 -7/-47/-8 
s 58
f -5/-30/-8 -7/-47/-8 -6/-39/-8 
s 59
f -7/-47/-8 -5/-30/-8 -37/-41/-8 
s 60
f -40/-29/-8 -37/-41/-8 -5/-30/-8 
s 61
f -40/-29/-8 -5/-30/-8 -42/-28/-8 
s 62
f -42/-28/-8 -5/-30/-8 -44/-27/-8 
s 63
f -44/-27/-8 -5/-30/-8 -48/-26/-8 
s 64
f -48/-26/-8 -5/-30/-8 -47/-25/-8 
s 65
f -5/-30/-8 -6/-39/-8 -47/-25/-8 
s 66
f -28/-40/-8 -47/-25/-8 -6/-39/-8 
s 67
f -4/-24/-7 -3/-23/-7 -24/-22/-6 
s 68
f -24/-22/-6 -9/-21/-6 -4/-24/-7 
s 69
f -4/-24/-7 -9/-21/-6 -11/-20/-5 
s 70
f -4/-24/-7 -11/-20/-5 -13/-19/-5 
s 71
f -4/-24/-7 -13/-19/-5 -15/-18/-5 
s 72
f -4/-24/-7 -15/-18/-5 -38/-17/-5 
s 73
f -2/-16/-4 -27/-15/-3 -29/-14/-2 
s 74
f -2/-16/-4 -29/-14/-2 -31/-13/-5 
s 75
f -2/-16/-4 -31/-13/-5 -33/-12/-5 
s 76
f -2/-16/-4 -33/-12/-5 -34/-11/-5 
s 77
f -3/-23/-7 -2/-16/-4 -34/-11/-5 
s 78
f -34/-11/-5 -17/-10/-5 -3/-23/-7 
s 79
f -3/-23/-7 -17/-10/-5 -19/-9/-5 
s 80
f -3/-23/-7 -19/-9/-5 -21/-8/-5 
s 81
f -3/-23/-7 -21/-8/-5 -23/-7/-5 
s 82
f -3/-23/-7 -23/-7/-5 -24/-22/-6 
s 83
f -2/-16/-4 -3/-23/-7 -4/-24/-7 
s 84
f -4/-24/-7 -1/-6/-7 -2/-16/-4 
s 85
f -1/-6/-7 -4/-24/-7 -38/-17/-5 
s 86
f -38/-17/-5 -39/-5/-5 -1/-6/-7 
s 87
f -1/-6/-7 -39/-5/-5 -41/-4/-5 
s 88
f -1/-6/-7 -41/-4/-5 -43/-3/-5 
s 89
f -1/-6/-7 -43/-3/-5 -45/-2/-5 
s 90
f -1/-6/-7 -45/-2/-5 -46/-1/-1 
s 91
f -2/-16/-4 -1/-6/-7 -46/-1/-1 
s 92
f -46/-1/-1 -27/-15/-3 -2/-16/-4 
# 0 polygons - 92 triangles

